HIERARCHY
ROOT hip
{
OFFSET 0 95.04 -0.19
CHANNELS 6 Xposition Yposition Zposition Zrotation Xrotation Yrotation
JOINT abdomen
{
OFFSET 0 7.23 0
CHANNELS 6 Xposition Yposition Zposition Zrotation Xrotation Yrotation
JOINT chest
{
OFFSET 0 16.54 0
CHANNELS 6 Xposition Yposition Zposition Zrotation Xrotation Yrotation
JOINT neck
{
OFFSET 0 34.21 0
CHANNELS 6 Xposition Yposition Zposition Zrotation Xrotation Yrotation
JOINT head
{
OFFSET 0 6.29 0
CHANNELS 6 Xposition Yposition Zposition Zrotation Xrotation Yrotation
End Site
{
OFFSET 0 21.21 0
}
}
}
JOINT lCollar
{
OFFSET 4.06 26.61 -1.12
CHANNELS 6 Xposition Yposition Zposition Zrotation Xrotation Yrotation
JOINT lShldr
{
OFFSET 14.17 0 0
CHANNELS 6 Xposition Yposition Zposition Zrotation Xrotation Yrotation
JOINT lForeArm
{
OFFSET 26.12 0 0
CHANNELS 6 Xposition Yposition Zposition Zrotation Xrotation Yrotation
JOINT lHand
{
OFFSET 27.71 0 0
CHANNELS 6 Xposition Yposition Zposition Zrotation Xrotation Yrotation
JOINT lThumb1
{
OFFSET 2.29 -0.46 1.83
CHANNELS 6 Xposition Yposition Zposition Zrotation Xrotation Yrotation
JOINT lThumb2
{
OFFSET 5.29 0 0
CHANNELS 6 Xposition Yposition Zposition Zrotation Xrotation Yrotation
JOINT lThumb3
{
OFFSET 3.01 0 0
CHANNELS 6 Xposition Yposition Zposition Zrotation Xrotation Yrotation
End Site
{
OFFSET 2.62 0 0
}
}
}
}
JOINT lIndex1
{
OFFSET 9.37 0.29 2.59
CHANNELS 6 Xposition Yposition Zposition Zrotation Xrotation Yrotation
JOINT lIndex2
{
OFFSET 4.34 0 0
CHANNELS 6 Xposition Yposition Zposition Zrotation Xrotation Yrotation
JOINT lIndex3
{
OFFSET 2.16 0 0
CHANNELS 6 Xposition Yposition Zposition Zrotation Xrotation Yrotation
End Site
{
OFFSET 2.20 0 0
}
}
}
}
JOINT lMid1
{
OFFSET 9.47 0.83 0.29
CHANNELS 6 Xposition Yposition Zposition Zrotation Xrotation Yrotation
JOINT lMid2
{
OFFSET 4.77 0 0
CHANNELS 6 Xposition Yposition Zposition Zrotation Xrotation Yrotation
JOINT lMid3
{
OFFSET 2.87 0 0
CHANNELS 6 Xposition Yposition Zposition Zrotation Xrotation Yrotation
End Site
{
OFFSET 2.09 0 0
}
}
}
}
JOINT lRing1
{
OFFSET 8.65 1.01 -1.70
CHANNELS 6 Xposition Yposition Zposition Zrotation Xrotation Yrotation
JOINT lRing2
{
OFFSET 4.54 0 0
CHANNELS 6 Xposition Yposition Zposition Zrotation Xrotation Yrotation
JOINT lRing3
{
OFFSET 2.50 0 0
CHANNELS 6 Xposition Yposition Zposition Zrotation Xrotation Yrotation
End Site
{
OFFSET 2.20 0 0
}
}
}
}
JOINT lPinky1
{
OFFSET 7.69 0.66 -3.90
CHANNELS 6 Xposition Yposition Zposition Zrotation Xrotation Yrotation
JOINT lPinky2
{
OFFSET 3.21 0 0
CHANNELS 6 Xposition Yposition Zposition Zrotation Xrotation Yrotation
JOINT lPinky3
{
OFFSET 1.92 0 0
CHANNELS 6 Xposition Yposition Zposition Zrotation Xrotation Yrotation
End Site
{
OFFSET 1.78 0 0
}
}
}
}
}
}
}
}
JOINT rCollar
{
OFFSET -4.06 26.61 -1.12
CHANNELS 6 Xposition Yposition Zposition Zrotation Xrotation Yrotation
JOINT rShldr
{
OFFSET -14.17 0 0
CHANNELS 6 Xposition Yposition Zposition Zrotation Xrotation Yrotation
JOINT rForeArm
{
OFFSET -26.12 0 0
CHANNELS 6 Xposition Yposition Zposition Zrotation Xrotation Yrotation
JOINT rHand
{
OFFSET -27.71 0 0
CHANNELS 6 Xposition Yposition Zposition Zrotation Xrotation Yrotation
JOINT rThumb1
{
OFFSET -2.29 -0.46 1.83
CHANNELS 6 Xposition Yposition Zposition Zrotation Xrotation Yrotation
JOINT rThumb2
{
OFFSET -5.29 0 0
CHANNELS 6 Xposition Yposition Zposition Zrotation Xrotation Yrotation
JOINT rThumb3
{
OFFSET -3.01 0 0
CHANNELS 6 Xposition Yposition Zposition Zrotation Xrotation Yrotation
End Site
{
OFFSET -2.62 0 0
}
}
}
}
JOINT rIndex1
{
OFFSET -9.37 0.29 2.59
CHANNELS 6 Xposition Yposition Zposition Zrotation Xrotation Yrotation
JOINT rIndex2
{
OFFSET -4.34 0 0
CHANNELS 6 Xposition Yposition Zposition Zrotation Xrotation Yrotation
JOINT rIndex3
{
OFFSET -2.16 0 0
CHANNELS 6 Xposition Yposition Zposition Zrotation Xrotation Yrotation
End Site
{
OFFSET -2.20 0 0
}
}
}
}
JOINT rMid1
{
OFFSET -9.47 0.83 0.29
CHANNELS 6 Xposition Yposition Zposition Zrotation Xrotation Yrotation
JOINT rMid2
{
OFFSET -4.77 0 0
CHANNELS 6 Xposition Yposition Zposition Zrotation Xrotation Yrotation
JOINT rMid3
{
OFFSET -2.87 0 0
CHANNELS 6 Xposition Yposition Zposition Zrotation Xrotation Yrotation
End Site
{
OFFSET -2.09 0 0
}
}
}
}
JOINT rRing1
{
OFFSET -8.65 1.01 -1.70
CHANNELS 6 Xposition Yposition Zposition Zrotation Xrotation Yrotation
JOINT rRing2
{
OFFSET -4.54 0 0
CHANNELS 6 Xposition Yposition Zposition Zrotation Xrotation Yrotation
JOINT rRing3
{
OFFSET -2.50 0 0
CHANNELS 6 Xposition Yposition Zposition Zrotation Xrotation Yrotation
End Site
{
OFFSET -2.20 0 0
}
}
}
}
JOINT rPinky1
{
OFFSET -7.69 0.66 -3.90
CHANNELS 6 Xposition Yposition Zposition Zrotation Xrotation Yrotation
JOINT rPinky2
{
OFFSET -3.21 0 0
CHANNELS 6 Xposition Yposition Zposition Zrotation Xrotation Yrotation
JOINT rPinky3
{
OFFSET -1.92 0 0
CHANNELS 6 Xposition Yposition Zposition Zrotation Xrotation Yrotation
End Site
{
OFFSET -1.78 0 0
}
}
}
}
}
}
}
}
}
}
JOINT lThigh
{
OFFSET 8.73 -0 0
CHANNELS 6 Xposition Yposition Zposition Zrotation Xrotation Yrotation
JOINT lShin
{
OFFSET 0 -46.66 0
CHANNELS 6 Xposition Yposition Zposition Zrotation Xrotation Yrotation
JOINT lFoot
{
OFFSET 0 -40.14 0
CHANNELS 6 Xposition Yposition Zposition Zrotation Xrotation Yrotation
JOINT lToes
{
OFFSET 0 -8.88 14.22
CHANNELS 6 Xposition Yposition Zposition Zrotation Xrotation Yrotation
End Site
{
OFFSET 0 0 6.29
}
}
}
}
}
JOINT rThigh
{
OFFSET -8.73 0 -0
CHANNELS 6 Xposition Yposition Zposition Zrotation Xrotation Yrotation
JOINT rShin
{
OFFSET 0 -46.66 0
CHANNELS 6 Xposition Yposition Zposition Zrotation Xrotation Yrotation
JOINT rFoot
{
OFFSET 0 -40.14 0
CHANNELS 6 Xposition Yposition Zposition Zrotation Xrotation Yrotation
JOINT rToes
{
OFFSET 0 -8.88 14.22
CHANNELS 6 Xposition Yposition Zposition Zrotation Xrotation Yrotation
End Site
{
OFFSET 0 0 6.29
}
}
}
}
}
}
MOTION
Frames: 8
Frame Time: 0.03
0 95.04 -0.19 -0.48 1.81 1.95 0 7.23 0 1.57 1.11 -2.14 0 16.54 0 0.79 4.07 -4.30 0 34.21 0 -1.30 30.68 2.49 0 6.29 0 -2.36 -25.17 3.40 4.06 26.61 -1.12 -9.56 -3.15 -3.49 14.17 0 0 -68.63 33.07 3.62 26.12 0 0 -0.16 0.01 -11.06 27.71 0 0 -15.28 -1.61 5.91 2.29 -0.46 1.83 74.78 68.58 -92.06 5.29 0 0 -10.14 7.17 7.10 3.01 0 0 18.60 17.30 12.24 9.37 0.29 2.59 -13.03 -1.91 -4.94 4.34 0 0 -14.86 -0.12 3.05 2.16 0 0 -17.03 -0.50 2.96 9.47 0.83 0.29 -20.75 -5.46 4.64 4.77 0 0 -11.57 -0.21 2.98 2.87 0 0 -9.56 -0.09 3.87 8.65 1.01 -1.70 -21.88 1.16 7.25 4.54 0 0 -19.23 -0.44 2.60 2.50 0 0 -14.45 -0.19 2.90 7.69 0.66 -3.90 -26.27 -10.62 9.94 3.21 0 0 -16.79 -0.85 5.76 1.92 0 0 -12.38 -0.40 5.80 -4.06 26.61 -1.12 10.02 -3.68 -1.65 -14.17 0 0 55.78 32.20 10.51 -26.12 0 0 0.33 0.06 23.19 -27.71 0 0 11.05 -4.97 -0.34 -2.29 -0.46 1.83 -86.39 71.52 111.54 -5.29 0 0 18.16 1.44 -12.25 -3.01 0 0 -19.91 -3.46 -18.58 -9.37 0.29 2.59 16.10 -2.05 4.71 -4.34 0 0 23.41 -0.60 -4.24 -2.16 0 0 12.51 -0.23 -1.86 -9.47 0.83 0.29 17.10 -5.00 0.05 -4.77 0 0 34.35 -2.29 -7.69 -2.87 0 0 16.07 -0.42 -5.07 -8.65 1.01 -1.70 19.13 1.53 -2.49 -4.54 0 0 47.10 -2.13 -4.90 -2.50 0 0 16.24 -0.22 -2.65 -7.69 0.66 -3.90 23.36 -10.16 -3.58 -3.21 0 0 27.18 -2.06 -8.52 -1.92 0 0 10.73 -0.27 -4.89 8.73 -0 0 5.86 -26.67 19.83 0 -46.66 0 13.89 61.88 -12.93 0 -40.14 0 -1.22 -6.06 7.95 0 -8.88 14.22 0 0 0 -8.73 0 -0 1.48 -14.03 -15.15 0 -46.66 0 -7.66 26.27 5.07 0 -40.14 0 1.52 -15.72 -7.83 0 -8.88 14.22 0 0 0 
0.44 95.17 3.41 0.25 1.59 1.50 0 7.23 0 1.11 1.15 -1.62 0 16.54 0 0.22 4.16 -3.33 0 34.21 0 -1.40 30.82 2.44 0 6.29 0 -2.77 -24.43 3.08 4.06 26.61 -1.12 -9.66 -3.19 -3.07 14.17 0 0 -68.60 33.05 5.85 26.12 0 0 -0.22 0.02 -15.07 27.71 0 0 -14.38 -6.02 5.11 2.29 -0.46 1.83 74.78 68.58 -92.06 5.29 0 0 -10.14 7.17 7.10 3.01 0 0 18.60 17.30 12.24 9.37 0.29 2.59 -13.03 -1.91 -4.94 4.34 0 0 -14.86 -0.12 3.05 2.16 0 0 -17.03 -0.50 2.96 9.47 0.83 0.29 -20.75 -5.46 4.64 4.77 0 0 -11.57 -0.21 2.98 2.87 0 0 -9.56 -0.09 3.87 8.65 1.01 -1.70 -21.88 1.16 7.25 4.54 0 0 -19.23 -0.44 2.60 2.50 0 0 -14.45 -0.19 2.90 7.69 0.66 -3.90 -26.27 -10.62 9.94 3.21 0 0 -16.79 -0.85 5.76 1.92 0 0 -12.38 -0.40 5.80 -4.06 26.61 -1.12 9.78 -3.70 -1.54 -14.17 0 0 56.79 31.88 9.60 -26.12 0 0 0.36 0.07 24.86 -27.71 0 0 11.73 -5.08 0.07 -2.29 -0.46 1.83 -86.39 71.52 111.54 -5.29 0 0 18.16 1.44 -12.25 -3.01 0 0 -19.91 -3.46 -18.58 -9.37 0.29 2.59 16.10 -2.05 4.71 -4.34 0 0 23.41 -0.60 -4.24 -2.16 0 0 12.51 -0.23 -1.86 -9.47 0.83 0.29 17.10 -5.00 0.05 -4.77 0 0 34.35 -2.29 -7.69 -2.87 0 0 16.07 -0.42 -5.07 -8.65 1.01 -1.70 19.13 1.53 -2.49 -4.54 0 0 47.10 -2.13 -4.90 -2.50 0 0 16.24 -0.22 -2.65 -7.69 0.66 -3.90 23.36 -10.16 -3.58 -3.21 0 0 27.18 -2.06 -8.52 -1.92 0 0 10.73 -0.27 -4.89 8.73 -0 0 4.82 -28.51 18.68 0 -46.66 0 9.89 55.53 -9.91 0 -40.14 0 1.02 -8.18 8.30 0 -8.88 14.22 0 0 0 -8.73 0 -0 0.41 -11.10 -15.83 0 -46.66 0 -7.53 25.69 6.13 0 -40.14 0 1.93 -17.78 -7.70 0 -8.88 14.22 0 0 0 
0.94 95.01 7.08 0.94 1.26 1.09 0 7.23 0 0.65 1.24 -1.23 0 16.54 0 -0.07 4.34 -2.57 0 34.21 0 -1.48 30.86 2.35 0 6.29 0 -3.19 -24.15 2.87 4.06 26.61 -1.12 -9.82 -3.31 -2.02 14.17 0 0 -68.41 32.65 7.25 26.12 0 0 -0.27 0.04 -18.30 27.71 0 0 -14.34 -7.50 4.94 2.29 -0.46 1.83 74.78 68.58 -92.06 5.29 0 0 -10.14 7.17 7.10 3.01 0 0 18.60 17.30 12.24 9.37 0.29 2.59 -13.03 -1.91 -4.94 4.34 0 0 -14.86 -0.12 3.05 2.16 0 0 -17.03 -0.50 2.96 9.47 0.83 0.29 -20.75 -5.46 4.64 4.77 0 0 -11.57 -0.21 2.98 2.87 0 0 -9.56 -0.09 3.87 8.65 1.01 -1.70 -21.88 1.16 7.25 4.54 0 0 -19.23 -0.44 2.60 2.50 0 0 -14.45 -0.19 2.90 7.69 0.66 -3.90 -26.27 -10.62 9.94 3.21 0 0 -16.79 -0.85 5.76 1.92 0 0 -12.38 -0.40 5.80 -4.06 26.61 -1.12 9.75 -3.66 -0.99 -14.17 0 0 58.35 29.81 7.64 -26.12 0 0 0.38 0.09 26.88 -27.71 0 0 13.18 -4.23 -0.35 -2.29 -0.46 1.83 -86.39 71.52 111.54 -5.29 0 0 18.16 1.44 -12.25 -3.01 0 0 -19.91 -3.46 -18.58 -9.37 0.29 2.59 16.10 -2.05 4.71 -4.34 0 0 23.41 -0.60 -4.24 -2.16 0 0 12.51 -0.23 -1.86 -9.47 0.83 0.29 17.10 -5.00 0.05 -4.77 0 0 34.35 -2.29 -7.69 -2.87 0 0 16.07 -0.42 -5.07 -8.65 1.01 -1.70 19.13 1.53 -2.49 -4.54 0 0 47.10 -2.13 -4.90 -2.50 0 0 16.24 -0.22 -2.65 -7.69 0.66 -3.90 23.36 -10.16 -3.58 -3.21 0 0 27.18 -2.06 -8.52 -1.92 0 0 10.73 -0.27 -4.89 8.73 -0 0 4.08 -29.13 17.65 0 -46.66 0 6.64 46.52 -5.72 0 -40.14 0 -0.36 -7.70 8.19 0 -8.88 14.22 0 0 0 -8.73 0 -0 -0.77 -8.38 -16.53 0 -46.66 0 -7.46 25.96 7.19 0 -40.14 0 2.41 -20.33 -7.53 0 -8.88 14.22 0 0 0 
1.49 94.70 10.67 1.20 1.23 0.90 0 7.23 0 0.36 1.20 -1.00 0 16.54 0 0.07 4.25 -2.13 0 34.21 0 -1.47 30.85 2.20 0 6.29 0 -3.72 -24.15 2.64 4.06 26.61 -1.12 -9.93 -3.45 -0.74 14.17 0 0 -68.08 32.24 6.88 26.12 0 0 -0.27 0.04 -18.69 27.71 0 0 -14.59 -6.52 3.68 2.29 -0.46 1.83 74.78 68.58 -92.06 5.29 0 0 -10.14 7.17 7.10 3.01 0 0 18.60 17.30 12.24 9.37 0.29 2.59 -13.03 -1.91 -4.94 4.34 0 0 -14.86 -0.12 3.05 2.16 0 0 -17.03 -0.50 2.96 9.47 0.83 0.29 -20.75 -5.46 4.64 4.77 0 0 -11.57 -0.21 2.98 2.87 0 0 -9.56 -0.09 3.87 8.65 1.01 -1.70 -21.88 1.16 7.25 4.54 0 0 -19.23 -0.44 2.60 2.50 0 0 -14.45 -0.19 2.90 7.69 0.66 -3.90 -26.27 -10.62 9.94 3.21 0 0 -16.79 -0.85 5.76 1.92 0 0 -12.38 -0.40 5.80 -4.06 26.61 -1.12 10.15 -3.53 -0.19 -14.17 0 0 59.51 26.16 5.13 -26.12 0 0 0.41 0.10 28.43 -27.71 0 0 15.26 -1.93 -0.81 -2.29 -0.46 1.83 -86.39 71.52 111.54 -5.29 0 0 18.16 1.44 -12.25 -3.01 0 0 -19.91 -3.46 -18.58 -9.37 0.29 2.59 16.10 -2.05 4.71 -4.34 0 0 23.41 -0.60 -4.24 -2.16 0 0 12.51 -0.23 -1.86 -9.47 0.83 0.29 17.10 -5.00 0.05 -4.77 0 0 34.35 -2.29 -7.69 -2.87 0 0 16.07 -0.42 -5.07 -8.65 1.01 -1.70 19.13 1.53 -2.49 -4.54 0 0 47.10 -2.13 -4.90 -2.50 0 0 16.24 -0.22 -2.65 -7.69 0.66 -3.90 23.36 -10.16 -3.58 -3.21 0 0 27.18 -2.06 -8.52 -1.92 0 0 10.73 -0.27 -4.89 8.73 -0 0 3.65 -29.35 16.52 0 -46.66 0 4.56 35.63 -3.00 0 -40.14 0 -3.58 -4.61 7.87 0 -8.88 14.22 0 0 0 -8.73 0 -0 -1.61 -5.86 -17.10 0 -46.66 0 -7.15 25.92 7.77 0 -40.14 0 2.95 -22.64 -7.34 0 -8.88 14.22 0 0 0 
2.02 94.35 14.09 1.12 1.34 0.99 0 7.23 0 0.19 1.13 -0.91 0 16.54 0 0.56 4.12 -1.96 0 34.21 0 -1.39 30.77 2.02 0 6.29 0 -4.31 -24.43 2.58 4.06 26.61 -1.12 -10.13 -3.60 0.48 14.17 0 0 -67.58 31.97 5.12 26.12 0 0 -0.25 0.03 -17.04 27.71 0 0 -14.38 -5.23 1.51 2.29 -0.46 1.83 74.78 68.58 -92.06 5.29 0 0 -10.14 7.17 7.10 3.01 0 0 18.60 17.30 12.24 9.37 0.29 2.59 -13.03 -1.91 -4.94 4.34 0 0 -14.86 -0.12 3.05 2.16 0 0 -17.03 -0.50 2.96 9.47 0.83 0.29 -20.75 -5.46 4.64 4.77 0 0 -11.57 -0.21 2.98 2.87 0 0 -9.56 -0.09 3.87 8.65 1.01 -1.70 -21.88 1.16 7.25 4.54 0 0 -19.23 -0.44 2.60 2.50 0 0 -14.45 -0.19 2.90 7.69 0.66 -3.90 -26.27 -10.62 9.94 3.21 0 0 -16.79 -0.85 5.76 1.92 0 0 -12.38 -0.40 5.80 -4.06 26.61 -1.12 10.74 -3.37 0.62 -14.17 0 0 60.11 21.70 2.82 -26.12 0 0 0.42 0.10 29.20 -27.71 0 0 16.40 0.92 -1.42 -2.29 -0.46 1.83 -86.39 71.52 111.54 -5.29 0 0 18.16 1.44 -12.25 -3.01 0 0 -19.91 -3.46 -18.58 -9.37 0.29 2.59 16.10 -2.05 4.71 -4.34 0 0 23.41 -0.60 -4.24 -2.16 0 0 12.51 -0.23 -1.86 -9.47 0.83 0.29 17.10 -5.00 0.05 -4.77 0 0 34.35 -2.29 -7.69 -2.87 0 0 16.07 -0.42 -5.07 -8.65 1.01 -1.70 19.13 1.53 -2.49 -4.54 0 0 47.10 -2.13 -4.90 -2.50 0 0 16.24 -0.22 -2.65 -7.69 0.66 -3.90 23.36 -10.16 -3.58 -3.21 0 0 27.18 -2.06 -8.52 -1.92 0 0 10.73 -0.27 -4.89 8.73 -0 0 3.08 -29.26 15.20 0 -46.66 0 3.83 23.56 -2.02 0 -40.14 0 -7.22 -1.09 7.74 0 -8.88 14.22 0 0 0 -8.73 0 -0 -1.99 -3.15 -17.51 0 -46.66 0 -6.69 24.97 7.88 0 -40.14 0 3.57 -24.32 -7.14 0 -8.88 14.22 0 0 0 
2.53 93.80 17.59 0.64 1.40 0.74 0 7.23 0 0.26 1.07 -0.80 0 16.54 0 1.15 3.99 -1.74 0 34.21 0 -1.34 30.63 1.93 0 6.29 0 -4.20 -24.17 3.56 4.06 26.61 -1.12 -10.40 -3.75 1.70 14.17 0 0 -67.39 31.68 4.85 26.12 0 0 -0.27 0.04 -18.59 27.71 0 0 -13.29 -5.12 0.90 2.29 -0.46 1.83 74.78 68.58 -92.06 5.29 0 0 -10.14 7.17 7.10 3.01 0 0 18.60 17.30 12.24 9.37 0.29 2.59 -13.03 -1.91 -4.94 4.34 0 0 -14.86 -0.12 3.05 2.16 0 0 -17.03 -0.50 2.96 9.47 0.83 0.29 -20.75 -5.46 4.64 4.77 0 0 -11.57 -0.21 2.98 2.87 0 0 -9.56 -0.09 3.87 8.65 1.01 -1.70 -21.88 1.16 7.25 4.54 0 0 -19.23 -0.44 2.60 2.50 0 0 -14.45 -0.19 2.90 7.69 0.66 -3.90 -26.27 -10.62 9.94 3.21 0 0 -16.79 -0.85 5.76 1.92 0 0 -12.38 -0.40 5.80 -4.06 26.61 -1.12 11.30 -3.21 1.50 -14.17 0 0 60.70 17.12 0.50 -26.12 0 0 0.42 0.11 29.94 -27.71 0 0 16.12 3.44 -3.06 -2.29 -0.46 1.83 -86.39 71.52 111.54 -5.29 0 0 18.16 1.44 -12.25 -3.01 0 0 -19.91 -3.46 -18.58 -9.37 0.29 2.59 16.10 -2.05 4.71 -4.34 0 0 23.41 -0.60 -4.24 -2.16 0 0 12.51 -0.23 -1.86 -9.47 0.83 0.29 17.10 -5.00 0.05 -4.77 0 0 34.35 -2.29 -7.69 -2.87 0 0 16.07 -0.42 -5.07 -8.65 1.01 -1.70 19.13 1.53 -2.49 -4.54 0 0 47.10 -2.13 -4.90 -2.50 0 0 16.24 -0.22 -2.65 -7.69 0.66 -3.90 23.36 -10.16 -3.58 -3.21 0 0 27.18 -2.06 -8.52 -1.92 0 0 10.73 -0.27 -4.89 8.73 -0 0 2.96 -29.62 14.50 0 -46.66 0 3.83 14.60 -1.91 0 -40.14 0 -8.63 -2.44 7.69 0 -8.88 14.22 0 0 0 -8.73 0 -0 -1.89 -0.31 -17.82 0 -46.66 0 -6.37 23.80 8.23 0 -40.14 0 4.28 -25.93 -6.91 0 -8.88 14.22 0 0 -0 
3.10 92.78 21.41 -0.22 1.18 0.06 0 7.23 0 0.64 1.03 -0.70 0 16.54 0 1.63 3.90 -1.64 0 34.21 0 -1.30 30.49 1.94 0 6.29 0 -3.30 -22.66 5.60 4.06 26.61 -1.12 -10.63 -3.91 3.13 14.17 0 0 -67.59 31.49 7.49 26.12 0 0 -0.37 0.08 -26.10 27.71 0 0 -11.37 -6.04 2.86 2.29 -0.46 1.83 74.78 68.58 -92.06 5.29 0 0 -10.14 7.17 7.10 3.01 0 0 18.60 17.30 12.24 9.37 0.29 2.59 -13.03 -1.91 -4.94 4.34 0 0 -14.86 -0.12 3.05 2.16 0 0 -17.03 -0.50 2.96 9.47 0.83 0.29 -20.75 -5.46 4.64 4.77 0 0 -11.57 -0.21 2.98 2.87 0 0 -9.56 -0.09 3.87 8.65 1.01 -1.70 -21.88 1.16 7.25 4.54 0 0 -19.23 -0.44 2.60 2.50 0 0 -14.45 -0.19 2.90 7.69 0.66 -3.90 -26.27 -10.62 9.94 3.21 0 0 -16.79 -0.85 5.76 1.92 0 0 -12.38 -0.40 5.80 -4.06 26.61 -1.12 11.83 -3.03 2.45 -14.17 0 0 61.34 12.54 -2.21 -26.12 0 0 0.44 0.12 31.42 -27.71 0 0 16.13 5.98 -5.57 -2.29 -0.46 1.83 -86.39 71.52 111.54 -5.29 0 0 18.16 1.44 -12.25 -3.01 0 0 -19.91 -3.46 -18.58 -9.37 0.29 2.59 16.10 -2.05 4.71 -4.34 0 0 23.41 -0.60 -4.24 -2.16 0 0 12.51 -0.23 -1.86 -9.47 0.83 0.29 17.10 -5.00 0.05 -4.77 0 0 34.35 -2.29 -7.69 -2.87 0 0 16.07 -0.42 -5.07 -8.65 1.01 -1.70 19.13 1.53 -2.49 -4.54 0 0 47.10 -2.13 -4.90 -2.50 0 0 16.24 -0.22 -2.65 -7.69 0.66 -3.90 23.36 -10.16 -3.58 -3.21 0 0 27.18 -2.06 -8.52 -1.92 0 0 10.73 -0.27 -4.89 8.73 -0 0 3.78 -32.60 14.59 0 -46.66 0 4.65 17.42 -3.63 0 -40.14 0 -7.54 -6.83 7.51 0 -8.88 14.22 0 0 -0 -8.73 0 -0 -1.50 2.57 -18.10 0 -46.66 0 -6.59 23.48 9.21 0 -40.14 0 5.26 -28.24 -6.49 0 -8.88 14.22 0 0 0 
3.84 91.68 25.62 -0.74 0.10 -0.49 0 7.23 0 0.91 1.24 -0.83 0 16.54 0 1.60 4.34 -1.96 0 34.21 0 -1.06 30.56 1.82 0 6.29 0 -2.29 -20.51 6.63 4.06 26.61 -1.12 -10.74 -4.06 4.49 14.17 0 0 -67.40 31.78 10.34 26.12 0 0 -0.49 0.15 -35.23 27.71 0 0 -9.37 -6.94 5.73 2.29 -0.46 1.83 74.78 68.58 -92.06 5.29 0 0 -10.14 7.17 7.10 3.01 0 0 18.60 17.30 12.24 9.37 0.29 2.59 -13.03 -1.91 -4.94 4.34 0 0 -14.86 -0.12 3.05 2.16 0 0 -17.03 -0.50 2.96 9.47 0.83 0.29 -20.75 -5.46 4.64 4.77 0 0 -11.57 -0.21 2.98 2.87 0 0 -9.56 -0.09 3.87 8.65 1.01 -1.70 -21.88 1.16 7.25 4.54 0 0 -19.23 -0.44 2.60 2.50 0 0 -14.45 -0.19 2.90 7.69 0.66 -3.90 -26.27 -10.62 9.94 3.21 0 0 -16.79 -0.85 5.76 1.92 0 0 -12.38 -0.40 5.80 -4.06 26.61 -1.12 12.20 -2.90 3.14 -14.17 0 0 62.18 8.21 -5.20 -26.12 0 0 0.48 0.14 33.99 -27.71 0 0 16.93 8.57 -8.47 -2.29 -0.46 1.83 -86.39 71.52 111.54 -5.29 0 0 18.16 1.44 -12.25 -3.01 0 0 -19.91 -3.46 -18.58 -9.37 0.29 2.59 16.10 -2.05 4.71 -4.34 0 0 23.41 -0.60 -4.24 -2.16 0 0 12.51 -0.23 -1.86 -9.47 0.83 0.29 17.10 -5.00 0.05 -4.77 0 0 34.35 -2.29 -7.69 -2.87 0 0 16.07 -0.42 -5.07 -8.65 1.01 -1.70 19.13 1.53 -2.49 -4.54 0 0 47.10 -2.13 -4.90 -2.50 0 0 16.24 -0.22 -2.65 -7.69 0.66 -3.90 23.36 -10.16 -3.58 -3.21 0 0 27.18 -2.06 -8.52 -1.92 0 0 10.73 -0.27 -4.89 8.73 -0 0 3.74 -33.15 14.41 0 -46.66 0 5.58 22.83 -5.99 0 -40.14 0 -4.79 -3.77 7.64 0 -8.88 14.22 0 0 0 -8.73 0 -0 -1.39 7.16 -18.56 0 -46.66 0 -6.94 21.89 8.91 0 -40.14 0 7.37 -29.98 -4.45 0 -8.88 14.22 0 0 0 
